<svg xmlns="http://www.w3.org/2000/svg" viewBox="0 0 80 80" width="80" height="80">
  <ellipse cx="40" cy="52" rx="24" ry="16" fill="#9CA3AF"/>
  <line x1="18" y1="42.17708623018316" x2="19" y2="48" stroke="#8B6914" stroke-width="0.8"/><line x1="19.5" y1="42.813070537886176" x2="20.5" y2="48" stroke="#8B6914" stroke-width="0.8"/><line x1="21" y1="36.487713993371116" x2="22" y2="48" stroke="#8B6914" stroke-width="0.8"/><line x1="22.5" y1="39.951511665907034" x2="23.5" y2="48" stroke="#8B6914" stroke-width="0.8"/><line x1="24" y1="36.501681811700855" x2="25" y2="48" stroke="#8B6914" stroke-width="0.8"/><line x1="25.5" y1="40.53067790909021" x2="26.5" y2="48" stroke="#8B6914" stroke-width="0.8"/><line x1="27" y1="41.862748486651405" x2="28" y2="48" stroke="#8B6914" stroke-width="0.8"/><line x1="28.5" y1="41.45813622246773" x2="29.5" y2="48" stroke="#8B6914" stroke-width="0.8"/><line x1="30" y1="37.52007224257681" x2="31" y2="48" stroke="#8B6914" stroke-width="0.8"/><line x1="31.5" y1="39.585611390655274" x2="32.5" y2="48" stroke="#8B6914" stroke-width="0.8"/><line x1="33" y1="39.89595639221028" x2="34" y2="48" stroke="#8B6914" stroke-width="0.8"/><line x1="34.5" y1="42.43107975969316" x2="35.5" y2="48" stroke="#8B6914" stroke-width="0.8"/><line x1="36" y1="38.349462607151494" x2="37" y2="48" stroke="#8B6914" stroke-width="0.8"/><line x1="37.5" y1="40.450096281286775" x2="38.5" y2="48" stroke="#8B6914" stroke-width="0.8"/><line x1="39" y1="38.358751945946764" x2="40" y2="48" stroke="#8B6914" stroke-width="0.8"/><line x1="40.5" y1="41.46739868786753" x2="41.5" y2="48" stroke="#8B6914" stroke-width="0.8"/><line x1="42" y1="38.12048795198372" x2="43" y2="48" stroke="#8B6914" stroke-width="0.8"/><line x1="43.5" y1="42.362379337532595" x2="44.5" y2="48" stroke="#8B6914" stroke-width="0.8"/><line x1="45" y1="37.05880430949631" x2="46" y2="48" stroke="#8B6914" stroke-width="0.8"/><line x1="46.5" y1="42.976142247294696" x2="47.5" y2="48" stroke="#8B6914" stroke-width="0.8"/><line x1="48" y1="38.949152709947036" x2="49" y2="48" stroke="#8B6914" stroke-width="0.8"/><line x1="49.5" y1="35.86750374223884" x2="50.5" y2="48" stroke="#8B6914" stroke-width="0.8"/><line x1="51" y1="35.48857728484635" x2="52" y2="48" stroke="#8B6914" stroke-width="0.8"/><line x1="52.5" y1="38.29795502836584" x2="53.5" y2="48" stroke="#8B6914" stroke-width="0.8"/><line x1="54" y1="40.271363074040366" x2="55" y2="48" stroke="#8B6914" stroke-width="0.8"/><line x1="55.5" y1="35.76797566453708" x2="56.5" y2="48" stroke="#8B6914" stroke-width="0.8"/><line x1="57" y1="35.54800570647578" x2="58" y2="48" stroke="#8B6914" stroke-width="0.8"/><line x1="58.5" y1="40.044229181255396" x2="59.5" y2="48" stroke="#8B6914" stroke-width="0.8"/><line x1="60" y1="41.00239509694567" x2="61" y2="48" stroke="#8B6914" stroke-width="0.8"/><line x1="61.5" y1="38.49978738475688" x2="62.5" y2="48" stroke="#8B6914" stroke-width="0.8"/>
  <text x="40" y="72" text-anchor="middle" font-size="7" fill="#666">100+ strands</text>
</svg>