<svg xmlns="http://www.w3.org/2000/svg" viewBox="0 0 80 80" width="80" height="80">
  <ellipse cx="40" cy="55" rx="18" ry="12" fill="#D1D5DB"/>
  <line x1="25" y1="41.267804386274115" x2="26" y2="50" stroke="#8B6914" stroke-width="1"/><line x1="27" y1="44.13921119085229" x2="28" y2="50" stroke="#8B6914" stroke-width="1"/><line x1="29" y1="43.41239228308511" x2="30" y2="50" stroke="#8B6914" stroke-width="1"/><line x1="31" y1="43.196681064875094" x2="32" y2="50" stroke="#8B6914" stroke-width="1"/><line x1="33" y1="43.55784817413259" x2="34" y2="50" stroke="#8B6914" stroke-width="1"/><line x1="35" y1="42.83700199044493" x2="36" y2="50" stroke="#8B6914" stroke-width="1"/><line x1="37" y1="44.033033198407885" x2="38" y2="50" stroke="#8B6914" stroke-width="1"/><line x1="39" y1="44.887522843213794" x2="40" y2="50" stroke="#8B6914" stroke-width="1"/><line x1="41" y1="42.21945540487219" x2="42" y2="50" stroke="#8B6914" stroke-width="1"/><line x1="43" y1="41.667115014898485" x2="44" y2="50" stroke="#8B6914" stroke-width="1"/><line x1="45" y1="44.944315463943624" x2="46" y2="50" stroke="#8B6914" stroke-width="1"/><line x1="47" y1="44.66040031723922" x2="48" y2="50" stroke="#8B6914" stroke-width="1"/><line x1="49" y1="42.91367323738988" x2="50" y2="50" stroke="#8B6914" stroke-width="1"/><line x1="51" y1="44.46159519224172" x2="52" y2="50" stroke="#8B6914" stroke-width="1"/><line x1="53" y1="41.85964535564931" x2="54" y2="50" stroke="#8B6914" stroke-width="1"/>
  <text x="40" y="72" text-anchor="middle" font-size="7" fill="#666">40-50 strands</text>
</svg>